<?xml version="1.0" encoding="iso-8859-1"?>
<!-- Generator: Adobe Illustrator 19.0.0, SVG Export Plug-In . SVG Version: 6.00 Build 0)  -->
<svg version="1.1" id="Layer_1" xmlns="http://www.w3.org/2000/svg" xmlns:xlink="http://www.w3.org/1999/xlink" x="0px" y="0px"
	 viewBox="0 0 509.219 509.219" style="enable-background:new 0 0 509.219 509.219;" xml:space="preserve">
<path style="fill:#F4AEA8;" d="M446.609,139.219h-82v56h100v-37.6C464.609,149.219,455.009,139.219,446.609,139.219z"/>
<path style="fill:#ACD9EA;" d="M348.209,91.219h-10.4h-194.4c-8.8,0-14.8,10.8-14.8,19.2v84.8h236v-53.2v-25.6v-5.6
	C364.609,102.019,356.609,91.219,348.209,91.219z"/>
<path style="fill:#CB5A30;" d="M379.409,71.219h-51.2h-19.6h-43.2c-8.8,0-16.8,7.2-16.8,15.6v4.4h99.6c8.8,0,16.4,10.8,16.4,19.2
	v5.6v22.8h32v-52.4C396.609,78.419,388.209,71.219,379.409,71.219z"/>
<path style="fill:#EFDC81;" d="M272.609,142.019c0-8.8-6.4-18.8-15.2-18.8h-192.8c-8.8,0-16,10-16,18.8v53.2h224V142.019z"/>
<path style="fill:#13A289;" d="M504.609,203.219c0-4.4-3.6-8-8-8h-484c-4.4,0-8,3.6-8,8v16.4c0,4.4,3.6,8,8,8h484c4.4,0,8-3.6,8-8
	V203.219z"/>
<g>
	<path style="fill:#61C2AB;" d="M344.209,212.819c1.2,0,2.4-0.4,4-0.8c6-2,9.6-8.8,7.2-14.8l-62.8-185.2c-2-6-8.8-9.6-14.8-7.2
		c-6,2-9.6,8.8-7.2,14.8l62.8,185.2C334.609,209.619,339.409,212.819,344.209,212.819z"/>
	<path style="fill:#61C2AB;" d="M237.809,4.819c-6-2-12.8,1.2-14.8,7.2l-61.6,181.2l-1.2,4c-2,6,1.2,12.8,7.2,14.8
		c1.2,0.4,2.4,0.8,4,0.8c4.8,0,9.6-3.2,11.2-8l2.8-8.8l60-176.4C247.409,13.619,243.809,6.819,237.809,4.819z"/>
	<path style="fill:#61C2AB;" d="M31.009,471.619c1.2,17.2,16.4,31.6,33.6,31.6h378c17.2,0,32.4-14.4,33.6-31.6l17.6-244.4h-19.6
		h-39.2h-421.2L31.009,471.619z M392.609,276.019c0-6.4,5.6-12,12-12s12,5.2,12,12v185.2c0,6.4-5.6,12-12,12s-12-5.2-12-12V276.019z
		 M316.609,276.019c0-6.4,5.6-12,12-12s12,5.2,12,12v185.2c0,6.4-5.6,12-12,12s-12-5.2-12-12V276.019z M240.609,276.019
		c0-6.4,5.6-12,12-12s12,5.2,12,12v185.2c0,6.4-5.6,12-12,12s-12-5.2-12-12V276.019z M168.609,276.019c0-6.4,3.6-12,10-12
		s10,5.2,10,12v185.2c0,6.4-3.6,12-10,12s-10-5.2-10-12V276.019z M92.609,276.019c0-6.4,5.6-12,12-12s12,5.2,12,12v185.2
		c0,6.4-5.6,12-12,12s-12-5.2-12-12V276.019z"/>
</g>
<g>
	<path style="fill:#F4EFEF;" d="M252.609,468.819c6.4,0,12-5.2,12-12v-185.2c0-6.4-5.6-12-12-12s-12,5.2-12,12v185.2
		C240.609,463.619,246.209,468.819,252.609,468.819z"/>
	<path style="fill:#F4EFEF;" d="M178.609,468.819c6.4,0,10-5.2,10-12v-185.2c0-6.4-3.6-12-10-12s-10,5.2-10,12v185.2
		C168.609,463.619,172.209,468.819,178.609,468.819z"/>
	<path style="fill:#F4EFEF;" d="M104.609,468.819c6.4,0,12-5.2,12-12v-185.2c0-6.4-5.6-12-12-12s-12,5.2-12,12v185.2
		C92.609,463.619,98.209,468.819,104.609,468.819z"/>
	<path style="fill:#F4EFEF;" d="M404.609,468.819c6.4,0,12-5.2,12-12v-185.2c0-6.4-5.6-12-12-12s-12,5.2-12,12v185.2
		C392.609,463.619,398.209,468.819,404.609,468.819z"/>
	<path style="fill:#F4EFEF;" d="M328.609,468.819c6.4,0,12-5.2,12-12v-185.2c0-6.4-5.6-12-12-12s-12,5.2-12,12v185.2
		C316.609,463.619,322.209,468.819,328.609,468.819z"/>
</g>
<path d="M328.609,201.219h-141.6c-2.4,0-4-1.6-4-4s1.6-4,4-4h141.6c2.4,0,4,1.6,4,4S330.609,201.219,328.609,201.219z"/>
<path d="M440.609,233.219h-423.2c-6.8,0-14.8-10-14.8-16.4v-15.6c0-2,0.8-3.6,2-5.2c2.8-2.8,7.6-2.8,11.6-2.8h1.2h141.6
	c2.4,0,4,1.6,4,4s-1.6,4-4,4H17.41h-1.2c-1.6,0-4.4,0-5.6,0.4v15.2c0,2.4,4.8,8,6.8,8.4h423.2c2.4,0,4,1.6,4,4
	S443.009,233.219,440.609,233.219z"/>
<path d="M497.809,233.219h-17.2c-2.4,0-4-1.6-4-4s1.6-4,4-4h16.8c0.4-0.8,1.2-3.2,1.2-8.4v-15.6h-0.8h-141.2c-2.4,0-4-1.6-4-4
	s1.6-4,4-4h142.4c2,0,4.4,0,6,1.6s1.6,4.4,1.6,6.4v15.6C506.609,230.419,501.809,233.219,497.809,233.219z"/>
<path d="M446.609,509.219h-378c-18.8,0-36.4-17.6-37.6-37.6l-17.6-241.2c0-2.4,1.6-4,3.6-4.4c2.4,0,4,1.6,4.4,3.6l17.6,241.2
	c1.2,16,15.2,30,29.6,30h378c14.4,0,28.8-14.4,29.6-30l17.2-241.2c0-2.4,2-4,4.4-3.6c2.4,0,4,2,3.6,4.4l-17.2,241.2
	C483.009,491.619,465.409,509.219,446.609,509.219z"/>
<path d="M344.209,216.819c-6.8,0-12.8-4.4-14.8-10.8l-62.8-185.2c-2.8-8.4,1.6-17.2,10-20c4-1.2,8.4-1.2,12,0.8s6.8,5.2,8,9.2
	l62.8,185.2c2.8,8.4-1.6,17.2-10,20C347.809,216.419,345.809,216.819,344.209,216.819z M281.409,8.019c-0.8,0-1.6,0-2.4,0.4
	c-4,1.2-6.4,6-4.8,10l62.8,185.2c1.2,4,6,6.4,10,4.8c4-1.2,6.4-6,4.8-10l-62.8-185.2c-0.8-2-2-3.6-4-4.4
	C283.409,8.419,282.209,8.019,281.409,8.019z"/>
<path d="M171.009,216.819c-1.6,0-3.6-0.4-5.2-0.8c-4-1.2-7.2-4-9.2-8s-2-8-0.8-12l62.8-185.2c1.2-4,4-7.2,8-9.2s8-2,12-0.8
	s7.2,4,9.2,8c2,3.6,2,8,0.8,12l-62.8,185.2C183.809,212.419,177.809,216.819,171.009,216.819z M233.809,8.019
	c-1.2,0-2.4,0.4-3.6,0.8c-2,0.8-3.2,2.4-4,4.4l-62.8,185.2c-0.8,2-0.4,4,0.4,6c0.8,2,2.4,3.2,4.4,4c4,1.2,8.4-0.8,10-4.8l62.8-185.2
	c0.8-2,0.4-4-0.4-6c-0.8-2-2.4-3.2-4.4-4C235.809,8.419,235.009,8.019,233.809,8.019z"/>
<path d="M250.609,472.819c-8.8,0-16-7.2-16-16v-185.2c0-8.8,7.2-16,16-16s16,7.2,16,16v185.2
	C266.609,465.619,259.409,472.819,250.609,472.819z M250.609,264.019c-4.4,0-8,3.6-8,8v185.2c0,4.4,3.6,8,8,8s8-3.6,8-8v-185.2
	C258.609,267.619,255.009,264.019,250.609,264.019z"/>
<path d="M178.609,472.819c-8.8,0-16-7.2-16-16v-185.2c0-8.4,7.6-16,16.4-16c8.8,0,15.6,6.8,15.6,16v185.2
	C194.609,465.619,187.409,472.819,178.609,472.819z M179.009,264.019c-4.4,0-8.4,3.6-8.4,8v185.2c0,4.4,3.6,8,8,8s8-3.6,8-8v-185.2
	C186.609,267.619,183.409,264.019,179.009,264.019z"/>
<path d="M102.609,472.819c-8.8,0-16-7.2-16-16v-185.2c0-8.8,7.2-16,16-16s16,7.2,16,16v185.2
	C118.609,465.619,111.409,472.819,102.609,472.819z M102.609,264.019c-4.4,0-8,3.6-8,8v185.2c0,4.4,3.6,8,8,8s8-3.6,8-8v-185.2
	C110.609,267.619,107.009,264.019,102.609,264.019z"/>
<path d="M402.609,472.819c-8.8,0-16-7.2-16-16v-185.2c0-8.8,7.2-16,16-16s16,7.2,16,16v185.2
	C418.609,465.619,411.409,472.819,402.609,472.819z M402.609,264.019c-4.4,0-8,3.6-8,8v185.2c0,4.4,3.6,8,8,8s8-3.6,8-8v-185.2
	C410.609,267.619,407.009,264.019,402.609,264.019z"/>
<path d="M326.609,472.819c-8.8,0-16-7.2-16-16v-185.2c0-8.8,7.2-16,16-16s16,7.2,16,16v185.2
	C342.609,465.619,335.409,472.819,326.609,472.819z M326.609,264.019c-4.4,0-8,3.6-8,8v185.2c0,4.4,3.6,8,8,8s8-3.6,8-8v-185.2
	C334.609,267.619,331.009,264.019,326.609,264.019z"/>
<path d="M362.609,195.219c-2.4,0-4-1.6-4-4v-84.8c0-8.4-1.6-9.2-6.4-9.2h-31.6c-2.4,0-4-1.6-4-4s1.6-4,4-4h31.6
	c14.4,0,14.4,12,14.4,17.2v84.8C366.609,193.619,365.009,195.219,362.609,195.219z"/>
<path d="M292.609,97.219h-72c-2.4,0-4-1.6-4-4s1.6-4,4-4h72c2.4,0,4,1.6,4,4S295.009,97.219,292.609,97.219z"/>
<path d="M126.609,123.219c-2.4,0-4-1.6-4-4v-12.8c0-12,14.8-17.2,24.8-17.2h45.2c2.4,0,4,1.6,4,4s-1.6,4-4,4h-45.2
	c-6.8,0-16.8,3.6-16.8,9.2v12.8C130.609,121.619,129.009,123.219,126.609,123.219z"/>
<path d="M462.609,195.219c-2.4,0-4-1.6-4-4v-37.6c0-6.8-2-8.4-8-8.4h-82c-2.4,0-4-1.6-4-4s1.6-4,4-4h82c10.8,0,16,5.6,16,16.4v37.6
	C466.609,193.619,465.009,195.219,462.609,195.219z"/>
<path d="M270.609,195.219c-2.4,0-4-1.6-4-4v-53.2c0-8.8-0.4-8.8-5.2-8.8h-48.8c-2.4,0-4-1.6-4-4s1.6-4,4-4h48.8
	c13.2,0,13.2,9.2,13.2,16.8v53.2C274.609,193.619,273.009,195.219,270.609,195.219z"/>
<path d="M46.609,195.219c-2.4,0-4-1.6-4-4v-53.2c0-11.6,15.2-16.8,26-16.8h112c2.4,0,4,1.6,4,4s-1.6,4-4,4h-112
	c-7.2,0-18,3.6-18,8.8v53.2C50.609,193.619,49.009,195.219,46.609,195.219z"/>
<path d="M394.609,139.219c-2.4,0-4-1.6-4-4v-52.4c0-5.6,0-5.6-7.2-5.6h-66.8c-2.4,0-4-1.6-4-4s1.6-4,4-4h66.8c10,0,15.2,2,15.2,13.6
	v52.4C398.609,137.619,397.009,139.219,394.609,139.219z"/>
<path d="M246.609,91.219c-2.4,0-4-1.6-4-4v-4.4c0-9.2,9.2-13.6,26.8-13.6h15.2c2.4,0,4,1.6,4,4s-1.6,4-4,4h-15.2
	c-11.6,0-18.8,2-18.8,5.6v4.4C250.609,89.619,249.009,91.219,246.609,91.219z"/>
<g>
</g>
<g>
</g>
<g>
</g>
<g>
</g>
<g>
</g>
<g>
</g>
<g>
</g>
<g>
</g>
<g>
</g>
<g>
</g>
<g>
</g>
<g>
</g>
<g>
</g>
<g>
</g>
<g>
</g>
</svg>
